<?xml version="1.0" encoding="UTF-8" standalone="no"?>
<!DOCTYPE svg PUBLIC "-//W3C//DTD SVG 1.1//EN" "http://www.w3.org/Graphics/SVG/1.1/DTD/svg11.dtd">
<svg width="100%" height="100%" viewBox="0 0 87 87" version="1.1" xmlns="http://www.w3.org/2000/svg" xmlnsXlink="http://www.w3.org/1999/xlink" xmlSpace="preserve" xmlnsSerif="http://www.serif.com/" style="fill-rule:evenodd;clip-rule:evenodd;stroke-linejoin:round;stroke-miterlimit:2;">
    <path d="M13,0.532C7.103,1.938 2.554,6.195 0.8,12C-3.578,26.492 0,46.88 0,62C0,68.557 -0.562,75.357 3.8,80.815C8.409,86.582 15.203,86.997 22,87C38.178,87.006 58.263,90.218 74,86.468C79.897,85.062 84.446,80.805 86.2,75C90.578,60.508 87,40.12 87,25C87,18.444 87.562,11.643 83.2,6.185C78.591,0.418 71.797,0.003 65,0C48.822,-0.006 28.737,-3.218 13,0.532Z" style="fill:rgb(115,109,196);fill-rule:nonzero;"/>
    <path d="M38,5.439C-11.087,13.169 0.91,88.448 50,80.56C97.925,72.859 85.798,-2.088 38,5.439Z" style="fill:rgb(226,234,248);fill-rule:nonzero;"/>
    <path d="M14,63L15,63L14,60L56,60C54.368,55.639 50.32,49.126 46,55L44,54L33,56L33,55L35,55L35,54L31,55L32,53L29,54L30,52C11.655,46.923 27.352,11.067 46.985,22.638C49.644,24.205 51.894,26.419 53.517,29.039C58.069,36.388 51.64,43.877 54.736,50C57.779,56.017 65.732,58.356 64,66L66,60L73,60L72,63C84.076,51.042 79.383,27.942 67.907,17.301C52.107,2.652 25.267,5.694 13.711,24C10.379,29.277 8.456,35.767 8.093,42C7.658,49.481 10.305,56.645 14,63Z" style="fill:rgb(7,165,254);fill-rule:nonzero;"/>
    <path d="M65,65C65.671,58.192 58.594,55.396 55.591,50C50.87,41.518 60.103,32.226 49.815,23.942C31.981,9.583 10.198,39.212 29.043,51.867C37.056,57.247 42.231,51.768 50,52.993C55.579,53.873 60.473,61.811 65,65Z" style="fill:rgb(226,234,248);fill-rule:nonzero;"/>
    <path d="M35,23.653C16.443,29.443 25.497,57.157 44,51.347C61.691,45.792 52.465,18.203 35,23.653Z" style="fill:rgb(7,165,254);fill-rule:nonzero;"/>
    <path d="M24,48L25,49L24,48M25,49L26,50L25,49M26,50L27,51L26,50M27,51L29,53L27,51Z" style="fill:rgb(1,127,255);fill-rule:nonzero;"/>
    <path d="M28,51L29,52L28,51Z" style="fill:rgb(115,109,196);fill-rule:nonzero;"/>
    <path d="M49.667,52.333L50.333,52.667L49.667,52.333M29.667,53.333L30.333,53.667L29.667,53.333M51,53L54,56L51,53M31.667,54.333L32.333,54.667L31.667,54.333M45,54L46,55L45,54M33,55L33,56L38,56L33,55M40,55L40,56L44,56L40,55M54,56L56,60L14,60C22.183,84.072 64.817,84.072 73,60L66,60L65,66L64,66L54,56Z" style="fill:rgb(1,127,255);fill-rule:nonzero;"/>
    <path d="M55,56L56,57L55,56M56,57L57,58L56,57M57,58L58,59L57,58M58,59L59,60L58,59M59,60L60,61L59,60M60,61L61,62L60,61M61,62L62,63L61,62M62,63L63,64L62,63Z" style="fill:rgb(115,109,196);fill-rule:nonzero;"/>
    <path d="M15,64L16,65L15,64Z" style="fill:rgb(7,165,254);fill-rule:nonzero;"/>
    <path d="M63,64L64,65L63,64Z" style="fill:rgb(115,109,196);fill-rule:nonzero;"/>
    <path d="M71,64L72,65L71,64M16,65L17,66L16,65M70,65L71,66L70,65M17,66L18,67L17,66M69,66L70,67L69,66M18,67L19,68L18,67M68,67L69,68L68,67M19,68L20,69L19,68M67,68L68,69L67,68M20,69L21,70L20,69M66,69L67,70L66,69M21,70L22,71L21,70M65,70L66,71L65,70M22,71L23,72L22,71M64,71L65,72L64,71M24,72L25,73L24,72M62,72L63,73L62,72M25,73L26,74L25,73M61,73L62,74L61,73Z" style="fill:rgb(7,165,254);fill-rule:nonzero;"/>
    <path d="M27,74L28,75L27,74M59,74L60,75L59,74Z" style="fill:rgb(7,165,254);fill-rule:nonzero;"/>
    <path d="M29,75L30,76L29,75M57,75L58,76L57,75M32,76L33,77L32,76M54,76L55,77L54,76M35.667,77.333L36.333,77.667L35.667,77.333M50.667,77.333L51.333,77.667L50.667,77.333Z" style="fill:rgb(7,165,254);fill-rule:nonzero;"/>
</svg>
